# xmcd
# 
# Track frame offsets:
#     150
#     15292
#     55392
#     93825
#     117192
#     144205
#     174850
# 
# Disc length: 2564
# 
# Revision: 1
# Processed by: cddbd v1.5.2PL0 Copyright (c) Steve Scherf et al.
# Submitted via: BonkEnc v1.0.6
# 
DISCID=470a0207
DTITLE=Pat Metheny - Offramp
DYEAR=1981
DGENRE=Contemporary Jazz
TTITLE0=Barcarole
TTITLE1=Are You Going With Me?
TTITLE2=Au Lait
TTITLE3=Eighteen
TTITLE4=Offramp
TTITLE5=James
TTITLE6=The Bat, Pt. 2
EXTD=
EXTT0=
EXTT1=
EXTT2=
EXTT3=
EXTT4=
EXTT5=
EXTT6=
PLAYORDER=
